<svg width="33" height="28" viewBox="0 0 33 28" fill="none" xmlns="http://www.w3.org/2000/svg">
<path d="M-1.18451e-06 14.4508C-1.2509e-06 13.6914 0.564306 13.0638 1.29646 12.9645L1.5 12.9508L27.868 12.952L18.342 3.46494C17.755 2.88042 17.7529 1.93067 18.3375 1.34362C18.8688 0.809946 19.7021 0.759739 20.2902 1.19418L20.4588 1.33906L32.5588 13.3871C32.6362 13.4641 32.7034 13.5475 32.7604 13.6356C32.7765 13.6621 32.7929 13.6892 32.8085 13.7168C32.8228 13.7405 32.8357 13.7652 32.8479 13.7901C32.8648 13.8263 32.8814 13.8637 32.8964 13.9019C32.9086 13.9313 32.9188 13.96 32.9281 13.9888C32.9391 14.0246 32.9499 14.0627 32.9591 14.1015C32.966 14.1285 32.9714 14.1545 32.9762 14.1806C32.9828 14.2195 32.9885 14.2597 32.9926 14.3004C32.9961 14.3314 32.9982 14.3622 32.9993 14.393C32.9996 14.4116 33 14.4312 33 14.4508L32.9992 14.5089C32.9981 14.5383 32.9961 14.5678 32.9932 14.5971L33 14.4508C33 14.5455 32.9912 14.6381 32.9745 14.7279C32.9706 14.7493 32.9659 14.7713 32.9608 14.7932C32.9502 14.8384 32.9378 14.8819 32.9237 14.9245C32.9167 14.9457 32.9086 14.9683 32.8999 14.9908C32.8824 15.0359 32.8633 15.0789 32.8424 15.1209C32.8327 15.1406 32.8217 15.1612 32.8103 15.1816C32.7916 15.2149 32.7723 15.2466 32.7519 15.2775C32.7374 15.2993 32.7215 15.322 32.7048 15.3444L32.6919 15.3617C32.6514 15.4145 32.6076 15.4645 32.5607 15.5115L32.5589 15.5129L20.4589 27.5629C19.8719 28.1474 18.9221 28.1455 18.3375 27.5585C17.8061 27.0248 17.7594 26.1914 18.1964 25.6051L18.3419 25.4371L27.864 15.952L1.5 15.9508C0.671572 15.9508 -1.11209e-06 15.2792 -1.18451e-06 14.4508Z" fill="#FF8100"/>
</svg>
