<svg xmlns="http://www.w3.org/2000/svg" viewBox="0 0 1329.29 233.7"><defs><style>.cls-1{fill:#ff8100;}.cls-2,.cls-3{fill:#fff;}.cls-3{font-size:225.15px;font-family:ExpresswayXb, Expressway;letter-spacing:0.01em;}</style></defs><g id="Layer_2" data-name="Layer 2"><g id="Layer_1-2" data-name="Layer 1"><path class="cls-1" d="M153.11,109.77v97H94a94.09,94.09,0,0,1-94-94A93.91,93.91,0,0,1,86.26,19.16l3.1-.26V61l-2.6.25a51.63,51.63,0,0,0,4.87,103h19.31V109.77Z"/><path class="cls-1" d="M300.48,112.78a93.95,93.95,0,0,1-94,94H174.69V164.28h34.17a51.63,51.63,0,0,0,0-103.26H110.94V18.84h95.58A94.06,94.06,0,0,1,300.48,112.78Z"/><path class="cls-2" d="M659.49,144.49c0,28.56-17.07,47-43.51,47h-58.2V160.91H616c9.52,0,15.92-6.67,15.92-16.6,0-9.78-6.26-16.09-15.92-16.09H589.52c-18.62,0-33.07-9.39-39.66-25.78A56.11,56.11,0,0,1,546,81.21c0-12,3.43-23.08,9.65-31.3,7.71-10.17,19.4-15.54,33.86-15.54h58.2V64.94h-58.2c-9.66,0-15.92,6.33-15.92,16.11s6.4,16.58,15.92,16.58H616c18.85,0,32.92,9.15,39.59,25.76A56.88,56.88,0,0,1,659.49,144.49Z"/><path class="cls-2" d="M1329.29,144.49c0,28.56-17.07,47-43.5,47h-58.21V160.91h58.21c9.52,0,15.91-6.67,15.91-16.6,0-9.78-6.25-16.09-15.91-16.09h-26.47c-18.62,0-33.07-9.39-39.66-25.78a56.11,56.11,0,0,1-3.85-21.23c0-12,3.43-23.08,9.65-31.3,7.71-10.17,19.4-15.54,33.86-15.54h58.2V64.94h-58.2c-9.66,0-15.91,6.33-15.91,16.11s6.39,16.58,15.91,16.58h26.47c18.84,0,32.91,9.15,39.58,25.76A56.88,56.88,0,0,1,1329.29,144.49Z"/><polygon class="cls-2" points="464.32 161.01 464.32 129.35 515.26 129.35 515.26 95.31 464.32 95.31 464.32 66.88 535.64 66.88 535.64 36.39 429.92 36.39 429.92 191.49 537.3 191.49 537.3 161.01 464.32 161.01"/><text class="cls-3" transform="translate(664.14 190.47)">PORT</text></g></g></svg>