<svg width="33" height="28" viewBox="0 0 33 28" fill="none" xmlns="http://www.w3.org/2000/svg">
<path d="M33 13.5492C33 14.3086 32.4357 14.9362 31.7035 15.0355L31.5 15.0492L5.132 15.048L14.658 24.5351C15.245 25.1196 15.2471 26.0693 14.6625 26.6564C14.1312 27.1901 13.2979 27.2403 12.7098 26.8058L12.5412 26.6609L0.441227 14.6129C0.363846 14.5359 0.296635 14.4525 0.23959 14.3644C0.223476 14.3379 0.207077 14.3108 0.191528 14.2832C0.177227 14.2594 0.164303 14.2348 0.152111 14.2099C0.135178 14.1737 0.118633 14.1363 0.103611 14.0981C0.091404 14.0687 0.0812149 14.04 0.0719185 14.0112C0.0608673 13.9754 0.0501289 13.9373 0.0408936 13.8985C0.0340271 13.8715 0.0285873 13.8455 0.0238457 13.8194C0.0171738 13.7805 0.0114975 13.7403 0.00744629 13.6996C0.00394821 13.6686 0.0018425 13.6378 0.000679016 13.607C0.000377655 13.5884 0 13.5688 0 13.5492L0.000751495 13.4911C0.00189972 13.4617 0.00391006 13.4322 0.00678635 13.4029L0 13.5492C0 13.4545 0.00876617 13.3619 0.0255356 13.2721C0.0294228 13.2507 0.0340576 13.2287 0.0391884 13.2068C0.0498428 13.1616 0.0621567 13.1181 0.0763359 13.0755C0.0832939 13.0543 0.091404 13.0317 0.100067 13.0092C0.117596 12.9641 0.13665 12.9211 0.157608 12.8791C0.167347 12.8594 0.178249 12.8388 0.189671 12.8184C0.208416 12.7851 0.227726 12.7534 0.248146 12.7225C0.262554 12.7007 0.278507 12.678 0.295166 12.6556L0.308147 12.6383C0.34856 12.5855 0.392403 12.5355 0.439339 12.4885L0.441139 12.4871L12.5411 0.437146C13.1281 -0.147426 14.0779 -0.14546 14.6625 0.441538C15.1939 0.975173 15.2406 1.8086 14.8036 2.39492L14.6581 2.56285L5.136 12.048L31.5 12.0492C32.3284 12.0492 33 12.7208 33 13.5492Z" fill="#FF8100"/>
</svg>
