<svg xmlns="http://www.w3.org/2000/svg" viewBox="0 0 1329.29 187.91"><defs><style>.cls-1{fill:#ff8100;}.cls-2{fill:#fff;}</style></defs><g id="Layer_2" data-name="Layer 2"><g id="Layer_1-2" data-name="Layer 1"><path class="cls-1" d="M153.11,90.94v97H94a94.08,94.08,0,0,1-94-94A93.9,93.9,0,0,1,86.26.33l3.1-.27v42.1l-2.6.25a51.63,51.63,0,0,0,4.87,103h19.31V90.94Z"/><path class="cls-1" d="M300.48,93.94a93.95,93.95,0,0,1-94,94H174.69V145.44h34.17a51.63,51.63,0,0,0,0-103.26H110.94V0h95.58A94.06,94.06,0,0,1,300.48,93.94Z"/><path class="cls-2" d="M659.49,125.65c0,28.56-17.07,47-43.51,47h-58.2V142.07H616c9.52,0,15.92-6.67,15.92-16.6,0-9.78-6.26-16.08-15.92-16.08H589.52c-18.62,0-33.07-9.4-39.66-25.79A56.07,56.07,0,0,1,546,62.37c0-12,3.43-23.08,9.65-31.3,7.71-10.17,19.4-15.54,33.86-15.54h58.2V46.11h-58.2c-9.66,0-15.92,6.32-15.92,16.1s6.4,16.58,15.92,16.58H616c18.85,0,32.92,9.15,39.59,25.77A56.79,56.79,0,0,1,659.49,125.65Z"/><path class="cls-2" d="M1329.29,125.65c0,28.56-17.07,47-43.5,47h-58.21V142.07h58.21c9.52,0,15.91-6.67,15.91-16.6,0-9.78-6.25-16.08-15.91-16.08h-26.47c-18.62,0-33.07-9.4-39.66-25.79a56.07,56.07,0,0,1-3.85-21.23c0-12,3.43-23.08,9.65-31.3,7.71-10.17,19.4-15.54,33.86-15.54h58.2V46.11h-58.2c-9.66,0-15.91,6.32-15.91,16.1s6.39,16.58,15.91,16.58h26.47c18.84,0,32.91,9.15,39.58,25.77A56.79,56.79,0,0,1,1329.29,125.65Z"/><polygon class="cls-2" points="464.32 142.18 464.32 110.51 515.26 110.51 515.26 76.47 464.32 76.47 464.32 48.04 535.64 48.04 535.64 17.55 429.92 17.55 429.92 172.65 537.3 172.65 537.3 142.18 464.32 142.18"/><path class="cls-2" d="M737.09,15.83A71.84,71.84,0,0,1,758.93,19a45.41,45.41,0,0,1,16.89,9.45A42.6,42.6,0,0,1,786.62,44a56.17,56.17,0,0,1,3.83,21.61q0,12.61-3.83,22a42.35,42.35,0,0,1-10.8,15.65,45.42,45.42,0,0,1-16.89,9.46,71.85,71.85,0,0,1-21.84,3.15H706.7v55.84H672V15.83ZM706.47,83.38h31.75q8.78,0,14.29-4T758,66.27q0-8.79-5.52-12.72t-14.29-3.94H706.47Z"/><path class="cls-2" d="M867.45,12.91a69.38,69.38,0,0,1,27,5.17,57.15,57.15,0,0,1,21.28,15.43Q924.63,43.76,929.59,59t5,35q0,19.82-5,34.9t-13.84,25.21a57.52,57.52,0,0,1-21.28,15.31,69.21,69.21,0,0,1-27,5.18,68.33,68.33,0,0,1-26.9-5.18,57.54,57.54,0,0,1-21.17-15.31q-8.89-10.12-13.84-25.21t-5-34.9q0-19.81,5-35t13.84-25.44a57.18,57.18,0,0,1,21.17-15.43A68.5,68.5,0,0,1,867.45,12.91Zm0,34.67q-14.85,0-23.53,11.57t-8.66,34.7q0,23.13,8.66,34.59t23.53,11.45q14.87,0,23.64-11.45t8.78-34.59q0-23.14-8.78-34.7T867.45,47.58Z"/><path class="cls-2" d="M1007.49,115.8H985.43v55.84H950.75V15.83h65.3A70.68,70.68,0,0,1,1037.77,19a47.14,47.14,0,0,1,16.78,9.23,41,41,0,0,1,10.8,15,51.78,51.78,0,0,1,3.83,20.6,58.61,58.61,0,0,1-2.36,17.45,51.82,51.82,0,0,1-6.19,13.28,38.26,38.26,0,0,1-8.78,9.46,41.61,41.61,0,0,1-10.36,5.74l35.12,61.92h-40.75ZM985.2,83.38h32q8.55,0,14.07-4t5.52-13.06q0-8.79-5.52-12.72t-14.07-3.94h-32Z"/><path class="cls-2" d="M1161,171.64h-34.67V50.51h-40.75V15.83h115.72V50.51H1161Z"/></g></g></svg>