<svg width="227" height="50" viewBox="0 0 227 50" fill="none" xmlns="http://www.w3.org/2000/svg">
<path d="M33.28 30.304V27.328H39.28V23.68H33.28V20.896H39.88V17.2H29.44V34H40V30.304H33.28Z" fill="#FF8100"/>
<path d="M48.0466 34.336C51.6946 34.336 54.2866 32.416 54.2866 29.176C54.2866 25.624 51.4306 24.736 48.8866 23.968C46.2706 23.176 45.8626 22.648 45.8626 21.88C45.8626 21.208 46.4626 20.608 47.6626 20.608C49.1986 20.608 49.9906 21.352 50.5666 22.552L53.8066 20.656C52.5826 18.184 50.4226 16.864 47.6626 16.864C44.7586 16.864 42.0226 18.736 42.0226 21.976C42.0226 25.192 44.4706 26.392 46.9666 27.088C49.4866 27.784 50.4466 28.192 50.4466 29.224C50.4466 29.872 49.9906 30.592 48.1666 30.592C46.2706 30.592 45.2386 29.656 44.6386 28.264L41.3266 30.184C42.2626 32.656 44.5186 34.336 48.0466 34.336ZM62.4484 17.2H56.0884V34H59.9284V28.72H62.4484C65.7604 28.72 68.3284 26.152 68.3284 22.96C68.3284 19.768 65.7604 17.2 62.4484 17.2ZM62.4484 25.12H59.9284V20.8H62.4484C63.6244 20.8 64.4884 21.736 64.4884 22.96C64.4884 24.184 63.6244 25.12 62.4484 25.12ZM78.1435 34.336C82.9675 34.336 86.8795 30.544 86.8795 25.6C86.8795 20.656 82.9675 16.864 78.1435 16.864C73.3195 16.864 69.4075 20.656 69.4075 25.6C69.4075 30.544 73.3195 34.336 78.1435 34.336ZM78.1435 30.592C75.4075 30.592 73.2475 28.6 73.2475 25.6C73.2475 22.6 75.4075 20.608 78.1435 20.608C80.8795 20.608 83.0395 22.6 83.0395 25.6C83.0395 28.6 80.8795 30.592 78.1435 30.592ZM97.8736 34H102.002L98.4256 27.832C100.274 26.896 101.522 25.024 101.522 22.96C101.522 19.768 98.9536 17.2 95.7616 17.2H89.0416V34H92.8816V28.48H94.7056L97.8736 34ZM92.8816 20.8H95.7616C96.8176 20.8 97.6816 21.736 97.6816 22.96C97.6816 24.184 96.8176 25.12 95.7616 25.12H92.8816V20.8ZM114.736 17.2H102.256V20.896H106.576V34H110.416V20.896H114.736V17.2ZM121.828 34.336C125.476 34.336 128.068 32.416 128.068 29.176C128.068 25.624 125.212 24.736 122.668 23.968C120.052 23.176 119.644 22.648 119.644 21.88C119.644 21.208 120.244 20.608 121.444 20.608C122.98 20.608 123.772 21.352 124.348 22.552L127.588 20.656C126.364 18.184 124.204 16.864 121.444 16.864C118.54 16.864 115.804 18.736 115.804 21.976C115.804 25.192 118.252 26.392 120.748 27.088C123.268 27.784 124.228 28.192 124.228 29.224C124.228 29.872 123.772 30.592 121.948 30.592C120.052 30.592 119.02 29.656 118.42 28.264L115.108 30.184C116.044 32.656 118.3 34.336 121.828 34.336ZM137.507 22.8H135.667V34H142.067V32.24H137.507V22.8ZM150.799 30.736C150.847 30.432 150.863 30.192 150.863 30.016C150.863 28.848 150.479 27.84 149.727 27.024C148.975 26.208 148.015 25.792 146.847 25.792C145.615 25.792 144.591 26.192 143.807 27.008C143.023 27.808 142.623 28.8 142.623 30C142.623 31.216 143.023 32.224 143.823 33.024C144.623 33.808 145.679 34.208 146.975 34.208C148.527 34.208 149.695 33.632 150.479 32.464L149.055 31.632C148.591 32.288 147.903 32.624 146.991 32.624C145.663 32.624 144.687 31.952 144.431 30.736H150.799ZM144.414 29.328C144.655 28.112 145.551 27.36 146.831 27.36C147.967 27.36 148.879 28.032 149.119 29.328H144.414ZM158.672 27.136C158.016 26.24 157.088 25.792 155.872 25.792C154.768 25.792 153.84 26.192 153.056 27.008C152.272 27.824 151.888 28.816 151.888 30C151.888 31.168 152.272 32.176 153.056 32.992C153.84 33.808 154.768 34.208 155.872 34.208C157.088 34.208 158.016 33.76 158.672 32.848V34H160.4V26H158.672V27.136ZM154.336 31.84C153.856 31.344 153.616 30.736 153.616 30C153.616 29.264 153.856 28.656 154.336 28.176C154.816 27.68 155.424 27.44 156.144 27.44C156.864 27.44 157.472 27.68 157.952 28.176C158.432 28.656 158.672 29.264 158.672 30C158.672 30.736 158.432 31.344 157.952 31.84C157.472 32.32 156.864 32.56 156.144 32.56C155.424 32.56 154.816 32.32 154.336 31.84ZM168.782 27.184C168.126 26.256 167.198 25.792 165.998 25.792C164.862 25.792 163.918 26.192 163.134 27.008C162.35 27.808 161.966 28.784 161.966 29.92C161.966 31.056 162.35 32.032 163.134 32.848C163.918 33.648 164.862 34.048 165.998 34.048C167.198 34.048 168.126 33.584 168.782 32.656V33.632C168.782 35.024 167.886 35.84 166.398 35.84C165.262 35.84 164.478 35.424 164.062 34.608L162.574 35.472C163.262 36.768 164.526 37.408 166.366 37.408C167.502 37.408 168.478 37.088 169.278 36.432C170.078 35.776 170.478 34.848 170.478 33.632V26H168.782V27.184ZM164.414 31.712C163.934 31.232 163.694 30.64 163.694 29.92C163.694 29.2 163.934 28.608 164.414 28.128C164.91 27.648 165.518 27.408 166.238 27.408C166.958 27.408 167.566 27.648 168.046 28.128C168.542 28.608 168.782 29.2 168.782 29.92C168.782 30.64 168.542 31.232 168.046 31.712C167.566 32.192 166.958 32.432 166.238 32.432C165.518 32.432 164.91 32.192 164.414 31.712ZM177.884 30.288C177.884 31.84 177.068 32.592 175.852 32.592C174.748 32.592 174.06 31.936 174.06 30.736V26H172.332V30.912C172.332 32.96 173.564 34.208 175.404 34.208C176.54 34.208 177.356 33.792 177.884 32.976V34H179.612V26H177.884V30.288ZM189.361 30.736C189.409 30.432 189.425 30.192 189.425 30.016C189.425 28.848 189.041 27.84 188.289 27.024C187.537 26.208 186.577 25.792 185.409 25.792C184.177 25.792 183.153 26.192 182.369 27.008C181.585 27.808 181.185 28.8 181.185 30C181.185 31.216 181.585 32.224 182.385 33.024C183.185 33.808 184.241 34.208 185.537 34.208C187.089 34.208 188.257 33.632 189.041 32.464L187.617 31.632C187.153 32.288 186.465 32.624 185.553 32.624C184.225 32.624 183.249 31.952 182.993 30.736H189.361ZM182.977 29.328C183.217 28.112 184.113 27.36 185.393 27.36C186.529 27.36 187.441 28.032 187.681 29.328H182.977Z" fill="#FFF9F2"/>
</svg>
