<svg xmlns="http://www.w3.org/2000/svg" viewBox="0 0 1677.53 201.69"><defs><style>.cls-1{fill:#ff8100;}.cls-2,.cls-3{fill:#fff;}.cls-3{font-size:31.52px;font-family:Axiforma-Bold, Axiforma;font-weight:700;}</style></defs><g id="Layer_2" data-name="Layer 2"><g id="Layer_1-2" data-name="Layer 1"><path class="cls-1" d="M153.11,104.72v97H94a93.95,93.95,0,0,1-7.7-187.58l3.1-.27V56l-2.6.25a51.62,51.62,0,0,0,4.87,103h19.31v-54.5Z"/><path class="cls-1" d="M300.48,107.73a93.93,93.93,0,0,1-94,94H174.69V159.22h34.17a51.63,51.63,0,1,0,0-103.25H110.94V13.78h95.58A94.07,94.07,0,0,1,300.48,107.73Z"/><path class="cls-2" d="M525.3,151.14V107.61h34.05v77.55H507.5c-44.22,0-77.58-34-77.58-79,0-44.78,31.91-76,77.58-76h51.83v34H507.5c-25.18,0-42.77,17.78-42.77,43.22s18,43.84,42.77,43.84Z"/><path class="cls-2" d="M862.45,30.07l-46,97.28-46-97.28H733.92V185.16H768.3V102.64l40.23,82.52h13.71l40.21-81.47v81.47h34.4V30.07Z"/><path class="cls-2" d="M1083.82,30.07h-48.91V185.16h48.91c52,0,88.25-32.08,88.25-78C1172.07,61.77,1135.79,30.07,1083.82,30.07Zm.24,124.85h-14.29V60.56h14.29c31.79,0,53.14,18.92,53.14,47.06C1137.2,135.91,1115.85,154.92,1084.06,154.92Z"/><path class="cls-2" d="M1276.09,28.69v97.69c0,16.81-12.14,28.54-29.54,28.54-17.24,0-28.82-11.47-28.82-28.54V28.69h-34.64v97.69c0,43.39,34.31,58.78,63.71,58.78,38.82,0,63.93-23.07,63.93-58.78V28.69Z"/><path class="cls-2" d="M1641.94,138.17c0,28.55-17.07,47-43.5,47h-58.21V154.59h58.21c9.52,0,15.91-6.68,15.91-16.6s-6.25-16.09-15.91-16.09H1572c-18.62,0-33.07-9.39-39.66-25.78a56.14,56.14,0,0,1-3.85-21.23c0-12,3.43-23.08,9.65-31.3C1545.82,33.42,1557.51,28,1572,28h58.2V58.62H1572c-9.66,0-15.91,6.32-15.91,16.11s6.39,16.58,15.91,16.58h26.47c18.84,0,32.91,9.15,39.58,25.76A56.88,56.88,0,0,1,1641.94,138.17Z"/><path class="cls-2" d="M1476.26,154.69V30.07h-34.4V185.16h88V154.69Z"/><path class="cls-2" d="M687.1,185.16h36.37L665.33,30.07h-38.6L569,185.16h36.37L614.92,157h62.43ZM645.89,67,665.35,123H626.69Z"/><polygon class="cls-2" points="943.99 154.69 943.99 123.03 994.94 123.03 994.94 88.99 943.99 88.99 943.99 60.56 1015.31 60.56 1015.31 30.07 909.59 30.07 909.59 185.16 1016.97 185.16 1016.97 154.69 943.99 154.69"/><polygon class="cls-2" points="1357.87 154.69 1357.87 123.03 1408.81 123.03 1408.81 88.99 1357.87 88.99 1357.87 60.56 1429.19 60.56 1429.19 30.07 1323.47 30.07 1323.47 185.16 1430.85 185.16 1430.85 154.69 1357.87 154.69"/><text class="cls-3" transform="translate(1629.03 27.4)">TM</text></g></g></svg>